<?xml version="1.0" encoding="UTF-8"?>
<svg id="Layer_2" xmlns="http://www.w3.org/2000/svg" viewBox="0 0 357.9 330.9">
  <defs>
    <style>
      .cls-1 {
        fill: #fff;
      }
    </style>
  </defs>
  <g id="Layer_1-2" data-name="Layer_1">
    <path class="cls-1" d="M357.9,163.26v4.19c-1.46,5.69-5.55,8.68-10.65,11.03-58.75,26.98-117.47,54.04-176.19,81.08-50.17,23.1-100.32,46.24-150.53,69.25-2.76,1.26-6,2.2-8.98,2.09-6.21-.22-9.55-4.5-11.55-9.96,0-1.63,0-3.26,0-4.88,1.55-2.68,2.83-5.55,4.68-8.01,33.32-44.45,66.7-88.85,100.07-133.26,2.36-3.14,4.69-6.3,7.03-9.44-.84-1.16-1.49-2.12-2.19-3.04C75.03,116.32,40.45,70.35,5.94,24.33,3.68,21.31,1.97,17.88,0,14.65c0-1.4,0-2.79,0-4.19C2.41-.29,12.82-1.95,21.06,1.86c108.67,50.29,217.45,100.32,326.24,150.35,5.1,2.35,9.14,5.38,10.6,11.04Z"/>
  </g>
</svg>